<?xml version="1.0" encoding="utf-8"?>
<!-- Generator: Adobe Illustrator 17.0.0, SVG Export Plug-In . SVG Version: 6.00 Build 0)  -->
<!DOCTYPE svg PUBLIC "-//W3C//DTD SVG 1.1//EN" "http://www.w3.org/Graphics/SVG/1.1/DTD/svg11.dtd">
<svg version="1.1" id="Capa_1" xmlns="http://www.w3.org/2000/svg" xmlns:xlink="http://www.w3.org/1999/xlink" x="0px" y="0px"
	 width="243.24px" height="105.5px" viewBox="0 0 243.24 105.5" enable-background="new 0 0 243.24 105.5" xml:space="preserve">
<path id="Path_547" fill="#E33C30" d="M37.064,58.38c-3.62-0.003-7.123,1.283-9.881,3.628c-6.446-5.46-16.098-4.661-21.558,1.785
	C3.283,66.558,1.998,70.064,2,73.686v23.816h10.846V73.686c-0.003-2.462,1.991-4.461,4.454-4.463
	c2.462-0.003,4.461,1.991,4.463,4.454c0,0.003,0,0.006,0,0.009v23.816H32.61V73.686c0.003-2.462,2.001-4.457,4.463-4.454
	c2.459,0.003,4.451,1.995,4.454,4.454v23.816h10.851V73.686c0.001-8.453-6.851-15.306-15.304-15.306
	C37.071,58.38,37.067,58.38,37.064,58.38z"/>
<rect id="Rectangle_267" x="107.402" y="66.892" fill="#44A041" width="10.845" height="30.609"/>
<path id="Path_548" fill="#3BB3E5" d="M89.06,82.197v15.305h10.846V82.197c0-2.462,1.996-4.459,4.459-4.459l0,0V66.892
	C95.912,66.892,89.06,73.744,89.06,82.197z"/>
<g id="Group_470" transform="translate(350.457 742.406)">
	<path id="Path_549" fill="#F18B00" d="M-279.735-675.513c-8.453-0.006-15.31,6.842-15.315,15.295
		c-0.006,8.453,6.842,15.31,15.295,15.315c4.51,0.003,8.792-1.983,11.702-5.429l-7.874-4.546c-2.942,2.107-7.034,1.429-9.141-1.512
		c-0.166-0.232-0.317-0.475-0.452-0.727h20.777c1.703-8.285-3.633-16.381-11.917-18.084c-1.012-0.208-2.042-0.313-3.075-0.314
		L-279.735-675.513z"/>
	<path id="Path_550" fill="#F18B00" d="M-279.735-678.015c4.763,0,9.253-2.223,12.141-6.011h-24.281
		C-288.988-680.238-284.498-678.015-279.735-678.015z"/>
</g>
<path id="Path_551" fill="#F45297" d="M143.181,58.38v10.021c-7.621-3.641-16.75-0.416-20.392,7.205
	c-3.641,7.621-0.416,16.75,7.205,20.392c1.95,0.932,4.076,1.44,6.237,1.49v0.018h1.26c9.493,0,16.469-6.426,16.53-18.312
	l0.006-0.007V58.38H143.181z"/>
<path id="Path_552" fill="#575194" d="M189.797,85.205c-0.062-11.888-7.037-18.313-16.53-18.313h-1.259v0.019
	c-8.447,0.183-15.146,7.179-14.963,15.626c0.183,8.447,7.179,15.146,15.626,14.963c2.178-0.047,4.321-0.559,6.286-1.502
	c0,0,0.633-0.327,0.947-0.514v2.026h9.9V85.211L189.797,85.205z"/>
<path id="Path_553" fill="#230771" d="M12.705,48.469l4.246-13.72h6.387L16.388,54.33H8.95L2.002,34.749h6.386L12.705,48.469z"/>
<rect id="Rectangle_268" x="26.379" y="34.749" fill="#230771" width="6" height="19.581"/>
<rect id="Rectangle_269" x="54.941" y="34.749" fill="#230771" width="6" height="19.581"/>
<path id="Path_554" fill="#230771" d="M78.052,49.171v5.159h-2.794c-1.934,0.12-3.842-0.487-5.352-1.702
	c-1.275-1.134-1.913-3.012-1.913-5.632v-7.195h-4.057v-5.053h4.057v-4.057h6v4.057h4.057v5.053h-4.057v7.297
	c-0.062,0.579,0.108,1.16,0.474,1.614c0.455,0.349,1.026,0.512,1.596,0.456L78.052,49.171z"/>
<path id="Path_555" fill="#230771" d="M242.236,77.941h-6.763l-3.328,4.851l-3.328-4.851h-6.763l6.71,9.781l-6.71,9.781h6.763
	l3.328-4.851l3.328,4.851h6.763l-6.71-9.781L242.236,77.941z"/>
<path id="Path_556" fill="#230771" d="M49.945,43.897c-1.028-0.693-2.189-1.164-3.409-1.382l-3.107-0.698
	c-0.702-0.118-1.39-0.313-2.049-0.582l-0.072-0.031c-0.243-0.081-0.415-0.298-0.438-0.553c0-0.005,0-0.011,0-0.016l0,0
	c0,0-0.213-1.299,2.505-1.299c2.672,0,2.502,1.7,2.502,1.7h5.39V40.38c-0.092-1.666-0.996-3.182-2.419-4.054
	c-1.576-1.074-3.45-1.626-5.357-1.578c-2.055-0.132-4.089,0.477-5.734,1.715c-1.334,1.089-2.096,2.728-2.07,4.449
	c-0.109,1.756,0.73,3.435,2.198,4.403c1.307,0.711,2.727,1.192,4.198,1.421l1.921,0.401c0.749,0.132,1.478,0.359,2.17,0.676
	c0.216,0.119,0.349,0.346,0.347,0.592l0,0c0,0,0.249,1.521-2.932,1.521c-3.125,0-2.928-1.991-2.928-1.991h-5.236l0.016,0.628
	c0.083,1.652,0.946,3.166,2.325,4.079c1.779,1.203,3.901,1.794,6.046,1.685c2.099,0.119,4.174-0.492,5.873-1.729
	c1.412-1.079,2.232-2.761,2.212-4.538C51.975,46.437,51.245,44.878,49.945,43.897z"/>
<path id="Path_557" fill="#230771" d="M212.018,77.941h-0.434c-1.731,0-3.412,0.582-4.772,1.653c-1.36-1.07-3.041-1.652-4.772-1.653
	h-0.434c-4.286,0.005-7.76,3.479-7.765,7.765v11.795h5.98V85.709c0.001-0.982,0.797-1.778,1.779-1.78h0.434
	c0.983,0.001,1.779,0.798,1.779,1.78v11.795h5.986V85.709c0.001-0.983,0.797-1.779,1.78-1.78h0.434
	c0.984-0.003,1.783,0.792,1.786,1.776c0,0.001,0,0.003,0,0.004v11.795h5.986V85.709C219.783,81.42,216.307,77.944,212.018,77.941z"
	/>
</svg>
